# xmcd CD database file
#
# Track frame offsets:
#	150
#	15000
#	31146
#	49950
#	69225
#	84617
#	98919
#	117295
#	134561
#	149230
#
# Disc length: 2599 seconds
#
# Revision: 0
# Processed by: cddbd v1.5.2PL0 Copyright (c) Steve Scherf et al.
# Submitted via: CDex 1.70beta2
#
DISCID=860a250a
DTITLE=Gaines, Jacques - Cdn. - For
DYEAR=2007
DGENRE=Country
TTITLE0=Never Had
TTITLE1=Your Name
TTITLE2=The Other Day I Dreamed
TTITLE3=Take Me
TTITLE4=Human Biz
TTITLE5=New York Sorrow
TTITLE6=When All Turns To Sand
TTITLE7=It Whispers
TTITLE8=Would It Really Matter
TTITLE9=Jacques Gaines - Trace Of Tracy
EXTD=YEAR: 2007
EXTT0=
EXTT1=
EXTT2=
EXTT3=
EXTT4=
EXTT5=
EXTT6=
EXTT7=
EXTT8=
EXTT9=
PLAYORDER=
